<svg width="343" height="178" viewBox="0 0 343 178" fill="none" xmlns="http://www.w3.org/2000/svg">
<g clip-path="url(#clip0_14848_72138)">
<path d="M0 -28H343V249H0V-28Z" fill="url(#paint0_linear_14848_72138)"/>
<rect x="16" y="16" width="186" height="50" rx="4" fill="#1D70B8"/>
<path d="M52.6185 35.0994C51.7926 35.438 50.8561 35.0507 50.5203 34.2419C50.1828 33.4349 50.5694 32.4945 51.3952 32.1595C52.2046 31.8298 53.1448 32.2243 53.4806 33.0331C53.8163 33.8384 53.4279 34.7697 52.6185 35.0994Z" fill="white"/>
<path d="M47.5208 40.7322C46.695 41.0708 45.7585 40.6835 45.4227 39.8747C45.0851 39.0677 45.4717 38.1273 46.2975 37.7923C47.107 37.4626 48.0471 37.8571 48.3829 38.666C48.7187 39.4712 48.3303 40.4025 47.5208 40.7322Z" fill="white"/>
<path d="M56.9114 37.6423C56.0856 37.981 55.1491 37.5937 54.8133 36.7848C54.4758 35.9778 54.8623 35.0375 55.6863 34.7024C56.4958 34.3728 57.436 34.7673 57.7736 35.5779C58.1093 36.3831 57.7209 37.3144 56.9114 37.6441V37.6423Z" fill="white"/>
<path d="M59.7552 41.8396C58.9294 42.1783 57.9928 41.791 57.6571 40.9821C57.3195 40.1751 57.7061 39.2348 58.5319 38.8997C59.3414 38.57 60.2815 38.9646 60.6173 39.7734C60.9549 40.5804 60.5646 41.5099 59.7552 41.8396Z" fill="white"/>
<path d="M47.7493 30.0315L47.7529 30.0279L49.7821 31.0854V28.1166L47.7566 28.7543L47.7511 28.7489C47.6948 28.6751 47.6295 28.6084 47.5551 28.5508L47.5496 28.5454L48.3646 26H45.437L46.2519 28.5472L46.2465 28.5526C46.1739 28.6102 46.1067 28.6751 46.0505 28.7507L46.045 28.7561L44.0195 28.1184V31.0854L46.0487 30.0279L46.0523 30.0315C46.1122 30.109 46.183 30.1793 46.261 30.2387L45.0958 33.7262C45.0958 33.7262 45.094 33.7352 45.0922 33.7388V33.7424C45.0377 33.9172 45.0087 34.1009 45.0087 34.2937C45.0087 35.2376 45.7111 36.0158 46.624 36.1491C46.6367 36.1491 46.6512 36.1527 46.6658 36.1545C46.7438 36.1653 46.8218 36.1707 46.9035 36.1707C46.9852 36.1707 47.0632 36.1635 47.1413 36.1545C47.154 36.1545 47.1685 36.1509 47.1812 36.1491C48.0941 36.0158 48.7965 35.2358 48.7965 34.2937C48.7965 34.1027 48.7675 33.9172 48.713 33.7424C48.6604 33.5677 48.713 33.7388 48.713 33.7388C48.713 33.7352 48.7112 33.7298 48.7094 33.7262L47.546 30.2387C47.6241 30.1793 47.6948 30.1108 47.7547 30.0315" fill="white"/>
<path d="M41.1587 35.0994C41.9845 35.438 42.9211 35.0507 43.2568 34.2419C43.5944 33.4349 43.2078 32.4945 42.382 32.1595C41.5725 31.8298 40.6324 32.2243 40.2966 33.0331C39.9609 33.8384 40.3493 34.7697 41.1587 35.0994Z" fill="white"/>
<path d="M36.8658 37.6423C37.6916 37.981 38.6281 37.5937 38.9639 36.7848C39.3015 35.9778 38.9149 35.0375 38.0909 34.7024C37.2814 34.3728 36.3412 34.7673 36.0037 35.5779C35.6679 36.3831 36.0563 37.3144 36.8658 37.6441V37.6423Z" fill="white"/>
<path d="M34.0267 41.8396C34.8525 42.1783 35.789 41.791 36.1248 40.9821C36.4624 40.1751 36.0758 39.2348 35.25 38.8997C34.4405 38.57 33.5003 38.9646 33.1646 39.7734C32.827 40.5804 33.2172 41.5099 34.0267 41.8396Z" fill="white"/>
<path d="M46.899 51.2834C50.7395 51.2834 54.3731 51.541 57.611 52.0004C58.5294 48.1634 59.6492 45.9675 60.8053 44.402L58.6292 43.6328C58.8452 44.7299 58.8797 45.2397 58.6383 45.944C58.2789 45.5964 57.9395 44.9551 57.6745 43.9769L56.6218 47.4608C57.2625 47.0231 57.758 46.7403 58.3225 46.7259C57.3188 48.8713 56.0664 49.4226 55.2533 49.2748C54.2624 49.0947 53.8068 48.2174 53.9593 47.4716C54.188 46.416 55.2788 46.1422 55.7869 47.369C56.7598 45.3964 55.1081 44.7821 54.0446 45.3658C55.678 43.7481 55.865 42.3106 54.5473 40.5723C52.7106 41.9666 52.6888 43.3464 53.5146 45.2883C52.442 44.0706 50.7722 44.7245 51.3766 46.6916C52.1497 45.5027 53.1752 46.2503 53.0137 47.3798C52.8775 48.3633 51.569 49.1578 49.9391 49.0172C47.6032 48.8065 47.4635 47.2068 47.4054 45.8828C47.9789 45.7765 49.0135 46.3061 49.8956 47.5347L50.2204 43.84C49.2621 44.8326 48.3909 45.0199 47.4217 45.0506C47.7448 44.0526 49.2258 42.4169 49.2258 42.4169H44.5795C44.5795 42.4169 46.0605 44.0508 46.3836 45.0506C45.4162 45.0199 44.545 44.8326 43.5849 43.84L43.9098 47.5347C44.7919 46.3061 45.8264 45.7783 46.3999 45.8828C46.3418 47.2068 46.2021 48.8065 43.8662 49.0172C42.2364 49.1578 40.9278 48.3633 40.7917 47.3798C40.6301 46.2503 41.6556 45.5027 42.4288 46.6916C43.0313 44.7227 41.3616 44.0688 40.2889 45.2883C41.1165 43.3464 41.0948 41.9666 39.2562 40.5723C37.9367 42.3124 38.1237 43.7499 39.7571 45.3658C38.6936 44.7821 37.0419 45.3964 38.0166 47.369C38.5266 46.1422 39.6156 46.4178 39.8443 47.4716C39.9985 48.2156 39.5412 49.0929 38.5502 49.2748C37.7389 49.4244 36.4847 48.8713 35.4811 46.7259C36.0473 46.7385 36.541 47.0231 37.1835 47.4608L36.129 43.9769C35.864 44.9551 35.5246 45.5964 35.1653 45.944C34.9221 45.2397 34.9565 44.7281 35.1743 43.6328L33 44.402C34.1561 45.9657 35.2742 48.1652 36.1925 52.0004C39.4304 51.541 43.0622 51.2834 46.9009 51.2834" fill="white"/>
<path d="M72.7479 41.7308C72.7479 42.5326 72.848 43.3049 73.0518 44.046C73.2538 44.7872 73.5613 45.4418 73.9745 46.0082C74.3877 46.5746 74.9139 47.0307 75.555 47.3746C76.1961 47.7185 76.9613 47.8914 77.8469 47.8914C78.7326 47.8914 79.4089 47.7571 79.9758 47.4868C80.5428 47.2165 80.9949 46.8781 81.334 46.4735C81.6712 46.0689 81.9084 45.6294 82.0455 45.1586C82.1807 44.6878 82.2493 44.252 82.2493 43.8511V43.6672H77.4134V40.7763H85.9661V51.0563H82.6198V48.8587C82.3827 49.2246 82.0881 49.5593 81.7379 49.8591C81.3859 50.1607 80.9912 50.4163 80.5521 50.6315C80.113 50.8448 79.6312 51.014 79.1087 51.1353C78.5862 51.2567 78.0304 51.3192 77.4412 51.3192C76.0627 51.3192 74.8361 51.071 73.7651 50.5744C72.6942 50.0779 71.79 49.3938 71.0581 48.5203C70.3244 47.6486 69.7667 46.628 69.385 45.4602C69.0033 44.2925 68.8125 43.0328 68.8125 41.6811C68.8125 40.3294 69.0256 39.0808 69.4517 37.9075C69.8779 36.7342 70.4838 35.7154 71.2694 34.8474C72.055 33.9794 73.0036 33.2953 74.1153 32.7951C75.227 32.2931 76.4721 32.043 77.8506 32.043C78.7474 32.043 79.596 32.146 80.4001 32.3501C81.2043 32.5542 81.938 32.8466 82.6013 33.2254C83.2646 33.6043 83.8501 34.0622 84.3597 34.5992C84.8692 35.1361 85.2824 35.7301 85.5974 36.3848L82.2511 38.2551C82.0492 37.8542 81.812 37.4809 81.5396 37.137C81.2673 36.7931 80.9541 36.497 80.5984 36.2469C80.2427 35.9986 79.8369 35.8019 79.3792 35.6584C78.9216 35.515 78.4121 35.4433 77.8506 35.4433C76.9631 35.4433 76.1998 35.6161 75.5587 35.96C74.9176 36.3039 74.3895 36.76 73.9782 37.3264C73.565 37.8928 73.2575 38.5493 73.0555 39.2941C72.8535 40.0389 72.7516 40.8094 72.7516 41.602V41.7326L72.7479 41.7308Z" fill="white"/>
<path d="M98.182 32.0391C99.5883 32.0391 100.848 32.2892 101.964 32.7912C103.079 33.2933 104.026 33.9774 104.804 34.8435C105.582 35.7115 106.175 36.7322 106.583 37.9036C106.992 39.0769 107.196 40.3347 107.196 41.6772C107.196 43.0197 106.992 44.2886 106.583 45.4563C106.175 46.6241 105.582 47.6447 104.804 48.5164C104.026 49.3881 103.079 50.0722 101.964 50.5705C100.848 51.0671 99.5865 51.3153 98.182 51.3153C96.7776 51.3153 95.5047 51.0671 94.393 50.5705C93.2813 50.074 92.3363 49.3899 91.56 48.5164C90.7818 47.6447 90.1889 46.6241 89.7813 45.4563C89.3718 44.2886 89.168 43.0288 89.168 41.6772C89.168 40.3255 89.3718 39.0769 89.7813 37.9036C90.1889 36.7303 90.7818 35.7115 91.56 34.8435C92.3382 33.9755 93.2813 33.2914 94.393 32.7912C95.5047 32.2892 96.7665 32.0391 98.182 32.0391ZM98.182 47.8911C99.0084 47.8911 99.7347 47.7367 100.363 47.4277C100.991 47.1188 101.521 46.6884 101.951 46.1386C102.381 45.5887 102.707 44.9396 102.925 44.1893C103.144 43.4389 103.255 42.6206 103.255 41.7305V41.6257C103.255 40.7448 103.146 39.9283 102.925 39.1725C102.705 38.4185 102.381 37.7675 101.951 37.2177C101.521 36.6678 100.991 36.2393 100.363 35.9285C99.7347 35.6196 99.0084 35.4651 98.182 35.4651C97.3557 35.4651 96.6275 35.6196 95.9938 35.9285C95.362 36.2375 94.8321 36.6678 94.4059 37.2177C93.9798 37.7675 93.6574 38.4185 93.4369 39.1725C93.2164 39.9265 93.1071 40.7448 93.1071 41.6257V41.7305C93.1071 42.6206 93.2164 43.4389 93.4369 44.1893C93.6555 44.9396 93.9798 45.5887 94.4059 46.1386C94.8321 46.6884 95.362 47.1169 95.9938 47.4277C96.6256 47.7367 97.3557 47.8911 98.182 47.8911Z" fill="white"/>
<path d="M113.723 51.0567L108.387 32.3027H112.669L116.319 46.4023H116.45L120.021 32.3027H124.251L118.915 51.0567H113.723Z" fill="white"/>
<path d="M146.179 47.8901C146.733 47.8901 147.248 47.8092 147.728 47.6474C148.206 47.4855 148.619 47.241 148.966 46.9155C149.312 46.5881 149.587 46.1743 149.79 45.6723C149.992 45.1703 150.094 44.5799 150.094 43.8995V32.2734H153.85V44.4622C153.85 45.5086 153.659 46.4539 153.277 47.2998C152.896 48.1457 152.364 48.8648 151.684 49.4569C151.004 50.0491 150.194 50.507 149.255 50.8307C148.316 51.1525 147.289 51.3143 146.174 51.3143C145.058 51.3143 144.032 51.1525 143.092 50.8307C142.153 50.5088 141.341 50.0509 140.656 49.4569C139.97 48.8648 139.439 48.1457 139.057 47.2998C138.675 46.4539 138.484 45.5086 138.484 44.4622V32.2734H142.266V43.8995C142.266 44.5799 142.366 45.1703 142.57 45.6723C142.772 46.1743 143.046 46.5881 143.394 46.9155C143.741 47.2428 144.154 47.4874 144.632 47.6474C145.11 47.8092 145.627 47.8901 146.181 47.8901H146.179Z" fill="white"/>
<path d="M157.307 32.3027H161.127V40.4255L167.873 32.3027H172.578L166.015 39.758L172.998 51.0586H168.557L163.564 42.6489L161.125 45.3559V51.0586H157.305V32.3027H157.307Z" fill="white"/>
<path d="M131.647 44.6206C129.995 45.2979 128.122 44.5233 127.451 42.9056C126.776 41.2916 127.549 39.4109 129.2 38.7408C130.819 38.0815 132.7 38.8705 133.371 40.4882C134.043 42.0986 133.266 43.9613 131.647 44.6206Z" fill="#00FFE0"/>
<g filter="url(#filter0_d_14848_72138)">
<rect x="207.516" y="53.2109" width="105.587" height="121.362" rx="6" transform="rotate(13 207.516 53.2109)" fill="url(#paint1_linear_14848_72138)" shape-rendering="crispEdges"/>
<rect x="207.141" y="52.6113" width="106.587" height="122.362" rx="6.5" transform="rotate(13 207.141 52.6113)" stroke="#6F777B" shape-rendering="crispEdges"/>
<rect x="207.207" y="114" width="79.6439" height="4" rx="2" transform="rotate(13 207.207 114)" fill="#505A5F"/>
<path d="M205.867 59.9876C206.736 56.2207 210.495 53.872 214.262 54.7416L303.701 75.3902C307.468 76.2599 309.816 80.0185 308.947 83.7854L308.316 86.5159L205.236 62.718L205.867 59.9876Z" fill="white"/>
<rect x="203.898" y="130" width="79.6439" height="4" rx="2" transform="rotate(13 203.898 130)" fill="#505A5F"/>
<rect x="200.902" y="146" width="61.9316" height="4" rx="2" transform="rotate(13 200.902 146)" fill="#505A5F"/>
<circle cx="225.163" cy="89.0397" r="5.44481" transform="rotate(-1.27926 225.163 89.0397)" fill="#505A5F"/>
<path d="M230.368 96.6857C228.057 92.3256 222.794 90.5872 218.614 92.8029C216.79 93.7693 215.474 95.3282 214.761 97.1406L231.447 101.171C231.476 99.6677 231.13 98.1239 230.368 96.6857Z" fill="#505A5F"/>
<rect x="216.352" y="73" width="24" height="31" rx="3" transform="rotate(13.0972 216.352 73)" stroke="#505A5F"/>
</g>
<g filter="url(#filter1_d_14848_72138)">
<g clip-path="url(#clip1_14848_72138)">
<rect x="52" y="113.32" width="124" height="86" rx="6" transform="rotate(-18 52 113.32)" fill="url(#paint2_linear_14848_72138)"/>
<rect x="109.551" y="128.286" width="62.413" height="4" rx="2" transform="rotate(-18 109.551 128.286)" fill="#505A5F"/>
<path d="M53.5729 119.203C52.5489 116.052 54.2736 112.667 57.4251 111.643L164.346 76.9021C167.498 75.8781 170.883 77.6028 171.907 80.7543L172.995 84.1043L54.6613 122.553L53.5729 119.203Z" fill="white"/>
<rect x="116" y="146.571" width="63.3341" height="4" rx="2" transform="rotate(-18 116 146.571)" fill="#505A5F"/>
<circle cx="88.6238" cy="147.444" r="5.44481" transform="rotate(-31.1236 88.6238 147.444)" fill="#505A5F"/>
<path d="M96.9446 151.485C92.7705 148.853 87.3409 149.964 84.8173 153.967C83.7167 155.712 83.3506 157.72 83.6339 159.647L100.113 154.838C99.3898 153.52 98.3215 152.353 96.9446 151.485Z" fill="#505A5F"/>
<rect x="73" y="137.916" width="24" height="31" rx="3" transform="rotate(-16.7472 73 137.916)" stroke="#505A5F"/>
</g>
<rect x="51.37" y="112.999" width="125" height="87" rx="6.5" transform="rotate(-18 51.37 112.999)" stroke="#6F777B"/>
</g>
</g>
<defs>
<filter id="filter0_d_14848_72138" x="178.769" y="53.2109" width="133.072" height="144.895" filterUnits="userSpaceOnUse" color-interpolation-filters="sRGB">
<feFlood flood-opacity="0" result="BackgroundImageFix"/>
<feColorMatrix in="SourceAlpha" type="matrix" values="0 0 0 0 0 0 0 0 0 0 0 0 0 0 0 0 0 0 127 0" result="hardAlpha"/>
<feOffset dy="1.44606"/>
<feGaussianBlur stdDeviation="0.723032"/>
<feComposite in2="hardAlpha" operator="out"/>
<feColorMatrix type="matrix" values="0 0 0 0 0 0 0 0 0 0 0 0 0 0 0 0 0 0 0.25 0"/>
<feBlend mode="normal" in2="BackgroundImageFix" result="effect1_dropShadow_14848_72138"/>
<feBlend mode="normal" in="SourceGraphic" in2="effect1_dropShadow_14848_72138" result="shape"/>
</filter>
<filter id="filter1_d_14848_72138" x="50.5539" y="75.002" width="147.4" height="123.002" filterUnits="userSpaceOnUse" color-interpolation-filters="sRGB">
<feFlood flood-opacity="0" result="BackgroundImageFix"/>
<feColorMatrix in="SourceAlpha" type="matrix" values="0 0 0 0 0 0 0 0 0 0 0 0 0 0 0 0 0 0 127 0" result="hardAlpha"/>
<feOffset dy="1.44606"/>
<feGaussianBlur stdDeviation="0.723032"/>
<feComposite in2="hardAlpha" operator="out"/>
<feColorMatrix type="matrix" values="0 0 0 0 0 0 0 0 0 0 0 0 0 0 0 0 0 0 0.25 0"/>
<feBlend mode="normal" in2="BackgroundImageFix" result="effect1_dropShadow_14848_72138"/>
<feBlend mode="normal" in="SourceGraphic" in2="effect1_dropShadow_14848_72138" result="shape"/>
</filter>
<linearGradient id="paint0_linear_14848_72138" x1="171.043" y1="5.82508" x2="171.003" y2="225.082" gradientUnits="userSpaceOnUse">
<stop offset="0.015625" stop-color="#CFE7DE"/>
<stop offset="0.8" stop-color="#1D70B8"/>
<stop offset="1" stop-color="#0F385C"/>
</linearGradient>
<linearGradient id="paint1_linear_14848_72138" x1="207.764" y1="176.607" x2="315.087" y2="63.5672" gradientUnits="userSpaceOnUse">
<stop stop-color="#FFC3F9"/>
<stop offset="1" stop-color="#DDF8FF"/>
</linearGradient>
<linearGradient id="paint2_linear_14848_72138" x1="56.2423" y1="200.582" x2="173.237" y2="115.575" gradientUnits="userSpaceOnUse">
<stop stop-color="#FEFBFC"/>
<stop offset="1" stop-color="#F7DEE5"/>
</linearGradient>
<clipPath id="clip0_14848_72138">
<rect width="343" height="178" fill="white"/>
</clipPath>
<clipPath id="clip1_14848_72138">
<rect x="52" y="113.32" width="124" height="86" rx="6" transform="rotate(-18 52 113.32)" fill="white"/>
</clipPath>
</defs>
</svg>
